Coordinates
version=1
nRows=8
nColumns=42
inDegrees=yes

Units are S.I. units (second, meters, Newtons, ...)
If the header above contains a line with 'inDegrees', this indicates whether rotational values are in degrees (yes) or radians (no).

endheader
time	pelvis_tilt	pelvis_list	pelvis_rotation	pelvis_tx	pelvis_ty	pelvis_tz	hip_flexion_r	hip_adduction_r	hip_rotation_r	knee_angle_r	knee_adduction_r	knee_angle_r_beta	ankle_angle_r	subtalar_angle_r	mtp_angle_r	hip_flexion_l	hip_adduction_l	hip_rotation_l	knee_angle_l	knee_adduction_l	knee_angle_l_beta	ankle_angle_l	subtalar_angle_l	mtp_angle_l	lumbar_extension	lumbar_bending	lumbar_rotation	arm_flex_r	arm_add_r	arm_rot_r	elbow_flex_r	pro_sup_r	wrist_flex_r	wrist_dev_r	arm_flex_l	arm_add_l	arm_rot_l	elbow_flex_l	pro_sup_l	wrist_flex_l	wrist_dev_l
      0.60000000	     -3.31845259	     -0.75712619	     -1.88386065	     -0.70436824	      0.85701450	     -0.39227988	     27.71062091	     -1.40143798	     -8.08427433	     21.80337648	      6.62194843	      0.38054071	      1.72156746	     -5.42428187	     -7.78828615	     -9.32150045	     -2.96482086	     -0.16978212	      4.17855709	     11.83126465	      0.07292958	     18.03084819	     -0.73850231	     -7.78828615	     -2.28302062	      2.94913973	     -1.58368181	     -7.46976872	    -17.95715322	      5.27481294	     36.31945702	     90.00000001	      0.00000000	      0.00000000	      4.64329119	    -11.29052922	    -17.16371451	     37.26642388	     90.00000001	      0.00000000	      0.00000000
      0.61000000	     -3.41358501	     -0.54515945	     -1.56727437	     -0.69250062	      0.85486183	     -0.39234024	     27.48283617	     -1.77621339	     -8.36185536	     18.75107192	      6.81237572	      0.32726794	      1.69517631	     -3.99280044	     -7.78227599	     -9.96607604	     -2.77178598	     -0.01716525	      4.41855108	     11.87397151	      0.07711826	     18.42681094	     -0.52903198	     -7.78227599	     -2.02051410	      2.83363665	     -2.10837712	     -7.88721226	    -18.08669122	      4.92702642	     36.29947290	     90.00000001	      0.00000000	      0.00000000	      4.91099780	    -11.41318469	    -16.91891220	     37.43219229	     90.00000001	      0.00000000	      0.00000000
      0.62000000	     -3.04189160	     -0.78873260	     -1.19540121	     -0.68007000	      0.85333351	     -0.39192183	     26.52554179	     -1.56168482	     -8.88396914	     15.72718716	      6.74096547	      0.27449120	      1.60414351	     -2.72188572	     -7.76930577	    -11.25494882	     -3.24121148	      0.11722378	      4.48285586	     12.15417391	      0.07824059	     18.73804630	     -0.26149586	     -7.76930577	     -2.27971970	      3.17457752	     -2.63911805	     -8.26340259	    -18.16652076	      4.27256981	     36.27458018	     90.00000001	      0.00000000	      0.00000000	      5.14835384	    -11.54403848	    -16.58559023	     37.67613143	     90.00000001	      0.00000000	      0.00000000
      0.63000000	     -3.27989024	     -0.50317326	     -0.92943257	     -0.66812568	      0.85106377	     -0.39182216	     26.55709511	     -1.98414217	     -9.00087744	     13.61278722	      6.86248132	      0.23758796	      1.52747263	     -1.55337493	     -7.76322513	    -11.63541921	     -2.99044322	      0.37509801	      4.92875941	     12.16580790	      0.08602308	     18.96652905	     -0.14485569	     -7.76322513	     -1.86123356	      2.97028332	     -3.10868558	     -8.66636271	    -18.29159563	      4.02618662	     36.27724660	     90.00000001	      0.00000000	      0.00000000	      5.29761021	    -11.65825350	    -16.36348743	     37.90146640	     90.00000001	      0.00000000	      0.00000000
      0.64000000	     -3.23624379	     -0.58327509	     -0.58963064	     -0.65576780	      0.84929044	     -0.39150244	     26.10770317	     -1.97460356	     -9.27013930	     11.63062302	      6.82061894	      0.20299267	      1.43967910	     -0.40823866	     -7.75004436	    -12.37059445	     -3.24001040	      0.65655685	      5.34401864	     12.29470542	      0.09327072	     19.09685713	     -0.03065566	     -7.75004436	     -1.76281497	      3.16570017	     -3.61085681	     -9.00020260	    -18.42595320	      3.48915353	     36.23164613	     90.00000001	      0.00000000	      0.00000000	      5.37837047	    -11.77191268	    -16.01307667	     38.19577032	     90.00000001	      0.00000000	      0.00000000
      0.65000000	     -3.52624059	     -0.42427476	     -0.36966198	     -0.64361936	      0.84727038	     -0.39126006	     26.23538924	     -2.24403982	     -9.26399892	     10.42468134	      6.88808399	      0.18194501	      1.41429943	      0.43192252	     -7.74595709	    -12.60577462	     -3.13587253	      0.99591114	      5.97520234	     12.26688686	      0.10428695	     19.08331881	     -0.01705991	     -7.74595709	     -1.30030025	      3.11675185	     -4.01682049	     -9.33572313	    -18.61349152	      3.28569505	     36.21210291	     90.00000001	      0.00000000	      0.00000000	      5.39270477	    -11.83148699	    -15.84345315	     38.44183525	     90.00000001	      0.00000000	      0.00000000
      0.66000000	     -3.69154685	     -0.46779029	     -0.11007822	     -0.63134621	      0.84562108	     -0.39077581	     26.17592377	     -2.24412044	     -9.23548449	      9.54161000	      6.81858266	      0.16653251	      1.42474910	      1.15566325	     -7.74111050	    -12.88411194	     -3.36136528	      1.38055936	      6.79245634	     12.40729384	      0.11855073	     18.93560207	     -0.11486880	     -7.74111050	     -0.98599491	      3.26437390	     -4.43201223	     -9.59201053	    -18.75315005	      2.97563790	     36.09908559	     90.00000001	      0.00000000	      0.00000000	      5.35635728	    -11.88916653	    -15.60447799	     38.75766820	     90.00000001	      0.00000000	      0.00000000
      0.67000000	     -3.84846973	     -0.57269401	      0.03027125	     -0.61902826	      0.84422543	     -0.39016724	     26.21517462	     -2.14314809	     -9.12973989	      9.26932519	      6.74654166	      0.16178024	      1.42313766	      1.52838754	     -7.73787176	    -13.14525928	     -3.61941124	      1.78179417	      7.64900410	     12.51185091	      0.13350031	     18.60110240	     -0.17906802	     -7.73787176	     -0.71007277	      3.49877892	     -4.66511859	     -9.82460980	    -18.94035770	      2.74769808	     35.98141905	     90.00000001	      0.00000000	      0.00000000	      5.33411046	    -11.85708018	    -15.44834463	     39.07365423	     90.00000001	      0.00000000	      0.00000000
